<svg enable-background="new 0 0 100 100" viewBox="0 0 100 125" xmlns="http://www.w3.org/2000/svg"><path d="m64.6833496 44.5810547-3.8583984-4.8237305c-.6010742-.7509766-.9326172-1.6420898-.9619141-2.6254883l-1.5160522-24.814209c.8464355-.3974609 1.4345093-1.2113647 1.4345093-2.1589355 0-.0996094-.0097656-.1987305-.0297852-.2963867l-.6147461-3.0507813c-.4086914-2.0273437-2.3666992-3.4990234-4.6567383-3.4990234h-8.9609375c-2.2890625 0-4.2475586 1.4711914-4.65625 3.4990234l-.6147461 3.0507813c-.0200195.0976563-.0297852.1967773-.0297852.2963867 0 .9472656.5877686 1.7608643 1.4337769 2.1585083l-1.5182495 24.8634644c-.0263672.9345703-.3579102 1.8256836-.9589844 2.5766602l-3.8588867 4.8237305c-1.7363281 2.1704102-2.6928711 4.8696289-2.6928711 7.6005859v41c0 1.9335938 1.6225586 3.5058594 3.6166992 3.5058594h27.5195313c1.9941406 0 3.6171875-1.5722656 3.6171875-3.5058594v-41c0-2.7309571-.9560547-5.4301759-2.6933594-7.600586zm-29.0600586 13.2792969h28.753418v24.2177734h-28.753418zm19.7344361-45.2802735.4893799 8.0068359h-11.6947022l.4890747-8.0068359zm-11.3886109 11.006836h12.0613403l.4170532 6.8242188h-12.8952026zm-.1656494-16.1821289c.1235352-.612793.8774414-1.0922852 1.7158203-1.0922852h8.9609375c.8388672 0 1.5922852.4794922 1.7158203 1.0917969l.4384766 2.1757813h-1.9301758v-1.34375c0-.5522461-.4477539-1-1-1s-1 .4477539-1 1v1.34375h-1.7045898v-1.34375c0-.5522461-.4477539-1-1-1s-1 .4477539-1 1v1.34375h-1.7045899v-1.34375c0-.5522461-.4477539-1-1-1s-1 .4477539-1 1v1.34375h-1.9296875zm-8.1801758 44.7768554c0-2.0522461.7226563-4.0859375 2.0356445-5.7265625l3.8588867-4.8237305c1.0112305-1.2641602 1.5698242-2.7739258 1.612793-4.3168945l.2384033-3.9033203h13.2618408l.2355957 3.8549805c.0458984 1.5917969.6044922 3.1015625 1.6157227 4.3652344l3.859375 4.8237305c1.3125 1.640625 2.0351563 3.6743164 2.0351563 5.7265625v2.6787109h-28.753418zm28.753418 41c0 .2792969-.2773438.5058594-.6171875.5058594h-27.5195313c-.3344727 0-.6166992-.2314453-.6166992-.5058594v-8.1035156h28.753418z"/><g font-family="'Helvetica Neue', Helvetica, Arial-Unicode, Arial, Sans-serif" font-size="5" font-weight="bold"><text y="115">Created by Llisole</text><text y="120">from the Noun Project</text></g></svg>