<svg xmlns="http://www.w3.org/2000/svg" xmlns:xlink="http://www.w3.org/1999/xlink" version="1.1" x="0px" y="0px" viewBox="0 0 100 125" style="enable-background:new 0 0 100 100;" xml:space="preserve"><path d="M50.6,80C34,80,20.4,66.5,20.4,49.8C20.4,35,31,22.5,45.6,20c0.5-0.1,1,0.1,1.4,0.5c0.3,0.4,0.5,0.9,0.3,1.4  c-0.8,2.6-1.2,5.3-1.2,8c0,15,12.2,27.2,27.2,27.2c1.5,0,3-0.1,4.6-0.4c0.5-0.1,1,0.1,1.4,0.5c0.3,0.4,0.5,0.9,0.3,1.4  C75.6,71.4,64,80,50.6,80z M43.8,23.5c-11.9,3.1-20.3,13.8-20.3,26.3c0,15,12.2,27.2,27.2,27.2c11.2,0,21.1-6.7,25.2-17  c-0.9,0.1-1.7,0.1-2.6,0.1c-16.7,0-30.2-13.5-30.2-30.2C43.1,27.7,43.3,25.6,43.8,23.5z"/></svg>