<svg viewBox="0 0 100 125" xmlns="http://www.w3.org/2000/svg"><path d="m42.775791 958.364a3.0003 3.0003 0 0 0 -.4062.0312c-20.7097 3.87478-36.3749995 21.94606-36.3749995 43.5938 0 24.4751 20.0654995 44.375 44.7187995 44.375 20.5731 0 37.9983-13.8226 43.1874-32.6562a3.0003 3.0003 0 0 0 -4.0312-3.5625c-4.1073 1.6878-8.5968 2.625-13.3125 2.625-19.245 0-34.75-15.3785-34.75-34.4063 0-5.63938 1.358-10.93022 3.7813-15.625a3.0003 3.0003 0 0 0 -2.8126-4.375zm-4.9062 7.5c-1.2989 3.94702-2.0625 8.13128-2.0625 12.5 0 22.2999 18.2916 40.4063 40.75 40.4063 3.301 0 6.4609-.4771 9.5313-1.2188-6.0237 13.403-19.5533 22.8125-35.375 22.8125-21.4398 0-38.718799-17.1721-38.718799-38.375 0-16.72623 10.818499-30.867 25.874999-36.125z" transform="translate(0 -952.36218)"/></svg>