<svg xmlns:dc="http://purl.org/dc/elements/1.1/" xmlns:cc="http://creativecommons.org/ns#" xmlns:rdf="http://www.w3.org/1999/02/22-rdf-syntax-ns#" xmlns:svg="http://www.w3.org/2000/svg" xmlns="http://www.w3.org/2000/svg" xmlns:sodipodi="http://sodipodi.sourceforge.net/DTD/sodipodi-0.dtd" xmlns:inkscape="http://www.inkscape.org/namespaces/inkscape" version="1.1" x="0px" y="0px" viewBox="0 0 100 125"><g transform="translate(0,-952.36218)"><path style="font-size:medium;font-style:normal;font-variant:normal;font-weight:normal;font-stretch:normal;text-indent:0;text-align:start;text-decoration:none;line-height:normal;letter-spacing:normal;word-spacing:normal;text-transform:none;direction:ltr;block-progression:tb;writing-mode:lr-tb;text-anchor:start;baseline-shift:baseline;opacity:1;color:#000000;fill:#000000;fill-opacity:1;stroke:none;stroke-width:4.00000047999999970;marker:none;visibility:visible;display:inline;overflow:visible;enable-background:accumulate;font-family:Sans;-inkscape-font-specification:Sans" d="M 62.6875 4 C 36.411489 4 15 24.57698 15 50 C 15 75.423 36.411491 96 62.6875 96 C 70.287447 96 77.492467 94.27455 83.875 91.21875 A 2.0002002 2.0002002 0 0 0 83.875 87.59375 C 69.495898 80.70925 60 66.5043 60 50 C 60 33.49584 69.4959 19.2595 83.875 12.375 A 2.0002002 2.0002002 0 0 0 83.875 8.78125 C 77.492467 5.72538 70.28745 4 62.6875 4 z M 62.6875 8 C 68.261191 8 73.575544 9.01712 78.46875 10.84375 C 64.857651 18.93132 56 33.42258 56 50 C 56 66.5627 64.847204 81.0331 78.4375 89.125 C 73.551808 90.9452 68.250842 92 62.6875 92 C 38.493179 92 19 73.1782 19 50 C 19 26.82188 38.493181 8 62.6875 8 z " transform="translate(0,952.36218)"/></svg>