<svg enable-background="new 0 0 100 100" viewBox="0 0 100 100" xmlns="http://www.w3.org/2000/svg"><path d="m24.762 79.088c.507.508 1.173.762 1.838.762s1.331-.254 1.838-.762l21.562-21.561 21.562 21.562c.507.508 1.173.762 1.838.762s1.331-.254 1.838-.762c1.016-1.015 1.016-2.662 0-3.677l-21.561-21.562 21.562-21.562c1.016-1.015 1.016-2.662 0-3.677-1.014-1.016-2.662-1.016-3.677 0l-21.562 21.562-21.562-21.561c-1.014-1.016-2.662-1.016-3.677 0-1.016 1.015-1.016 2.662 0 3.677l21.563 21.561-21.562 21.562c-1.016 1.015-1.016 2.661 0 3.676z"/></svg>