<svg xmlns="http://www.w3.org/2000/svg" viewBox="0 0 64 80" x="0px" y="0px"><title>transportation,vehicle,ship,boat,water,sail</title><g data-name="Layer 2"><path d="M32,36a4,4,0,1,0,4,4A4,4,0,0,0,32,36Zm0,6a2,2,0,1,1,2-2A2,2,0,0,1,32,42Z"/><path d="M61,46.17a1,1,0,0,0-1,1,3.83,3.83,0,1,1-7.67,0,1,1,0,0,0-2,0A3.84,3.84,0,0,1,46.5,51l-.15,0L52,32.29a1,1,0,0,0-.57-1.21L45,28.39V19a1,1,0,0,0-1-1H39V12a1,1,0,0,0-1-1H26a1,1,0,0,0-1,1v6H20a1,1,0,0,0-1,1v9.39l-6.39,2.69A1,1,0,0,0,12,32.29L17.65,51l-.15,0a3.84,3.84,0,0,1-3.83-3.83,1,1,0,0,0-2,0,3.83,3.83,0,1,1-7.67,0,1,1,0,0,0-2,0,5.83,5.83,0,0,0,10.67,3.26,5.81,5.81,0,0,0,9,.78l.06-.06a5.86,5.86,0,0,0,.59-.72l0,0a5.88,5.88,0,0,0,1.42,1.45h0a5.84,5.84,0,0,0,.59.37l.06,0a5.79,5.79,0,0,0,.58.27l.23.08c.15.05.29.11.45.14a5.82,5.82,0,0,0,.59.11l.13,0A5.83,5.83,0,0,0,32,50.43,5.83,5.83,0,0,0,37.58,53l.1,0a5.81,5.81,0,0,0,.61-.12l.37-.12.31-.1a5.79,5.79,0,0,0,.58-.27l.06,0a5.84,5.84,0,0,0,.59-.37h0a5.88,5.88,0,0,0,1.42-1.45l0,0a5.86,5.86,0,0,0,.59.72l.06.06a5.81,5.81,0,0,0,9-.78A5.83,5.83,0,0,0,62,47.17,1,1,0,0,0,61,46.17ZM27,13H37v5H27Zm-6,7H43v7.55L32.39,23.08a1,1,0,0,0-.78,0L21,27.55ZM33,47.17a1,1,0,0,0-2,0,3.83,3.83,0,1,1-7.67,0,1,1,0,0,0-2,0,3.82,3.82,0,0,1-.07.68l0,.16a3.8,3.8,0,0,1-.19.61l-.07.14a3.83,3.83,0,0,1-.23.42l-.13.2A3.49,3.49,0,0,1,20,50l-.11.09a3.84,3.84,0,0,1-.33.24L14.22,32.57,20.39,30h0L31,25.51V32a1,1,0,0,0,2,0V25.51L43.61,30h0l6.17,2.6L44.44,50.38a3.84,3.84,0,0,1-.33-.24L44,50a3.49,3.49,0,0,1-.62-.67l-.13-.2a3.83,3.83,0,0,1-.23-.42L43,48.62a3.8,3.8,0,0,1-.19-.61l0-.16a3.82,3.82,0,0,1-.07-.68,1,1,0,0,0-2,0,3.83,3.83,0,1,1-7.67,0Z"/></g></svg>