<svg xmlns:dc="http://purl.org/dc/elements/1.1/" xmlns:cc="http://creativecommons.org/ns#" xmlns:rdf="http://www.w3.org/1999/02/22-rdf-syntax-ns#" xmlns:svg="http://www.w3.org/2000/svg" xmlns="http://www.w3.org/2000/svg" xmlns:sodipodi="http://sodipodi.sourceforge.net/DTD/sodipodi-0.dtd" xmlns:inkscape="http://www.inkscape.org/namespaces/inkscape" viewBox="0 0 48 60.00000125" version="1.1" x="0px" y="0px"><g transform="translate(0,-1004.3622)"><path style="color:#000000;font-style:normal;font-variant:normal;font-weight:normal;font-stretch:normal;font-size:medium;line-height:normal;font-family:sans-serif;text-indent:0;text-align:start;text-decoration:none;text-decoration-line:none;text-decoration-style:solid;text-decoration-color:#000000;letter-spacing:normal;word-spacing:normal;text-transform:none;direction:ltr;block-progression:tb;writing-mode:lr-tb;baseline-shift:baseline;text-anchor:start;white-space:normal;clip-rule:nonzero;display:inline;overflow:visible;visibility:visible;opacity:1;isolation:auto;mix-blend-mode:normal;color-interpolation:sRGB;color-interpolation-filters:linearRGB;solid-color:#000000;solid-opacity:1;fill:#000000;fill-opacity:1;fill-rule:nonzero;stroke:none;stroke-width:2;stroke-linecap:round;stroke-linejoin:round;stroke-miterlimit:4;stroke-dasharray:none;stroke-dashoffset:0;stroke-opacity:1;color-rendering:auto;image-rendering:auto;shape-rendering:auto;text-rendering:auto;enable-background:accumulate" d="m 27.631054,1004.9704 c 3.79804,1.4088 6.545458,4.5955 7.686856,8.39 0.376836,0 0.731727,-0.04 1.074906,-0.063 l 0,0 c 1.095211,0.039 2.198358,0.2413 3.275626,0.6233 5.675955,2.0135 9.115548,7.8296 8.178295,13.8042 -0.911324,5.8091 -5.735966,10.1283 -11.532238,10.5079 -5.148598,0.2174 -10.37,0.096 -14.807865,0.092 -3.968821,-0.1978 -7.457596,-2.6734 -8.875321,-6.3208 -0.213883,-0.5502 -0.367368,-1.1124 -0.475778,-1.6783 l -2.6001374,0 c -0.017613,5e-4 -0.035247,5e-4 -0.05286,0 -3.9758938,-0.2074 -7.4499056,-2.8004 -8.85378254,-6.5768 -1.40396219,-3.7765 -0.48727511,-8.0406 2.34364874,-10.8773 2.6904137,-2.6955 6.5870348,-3.0347 10.0324592,-1.8757 2.405385,-3.9983 6.569775,-6.6641 10.999679,-6.6334 1.205874,0.011 2.585888,0.2389 3.606512,0.6096 z m -3.334364,1.35 -0.02153,0 c -3.856832,-0.1447 -7.783679,2.3353 -9.850372,6.1295 -0.04964,0.091 -0.113047,0.173 -0.187962,0.2443 l -0.158594,0.1504 c -0.28568,0.2724 -0.705065,0.352 -1.07099,0.2031 -3.0313133,-1.2387 -6.3720537,-0.9967 -8.5953357,1.2309 -2.2736248,2.2783 -3.0170071,5.722 -1.8835334,8.7711 1.1323349,3.0458 3.9059129,5.1025 7.0701035,5.2716 l 2.3847656,0 c 2.36e-4,-0.011 0.0017,-0.021 0.002,-0.031 0.007,-0.2953 0.02865,-0.5886 0.06265,-0.8812 0.0018,-0.016 0.0039,-0.031 0.0059,-0.047 0.112637,-0.93 0.360221,-1.8409 0.736184,-2.7043 0.530327,-1.2605 1.295884,-2.2138 2.200631,-3.1633 2.701523,-2.5886 6.57989,-2.9065 10.02267,-1.7995 1.504384,-2.387 3.683657,-4.258 6.183159,-5.3341 0.682237,-0.3037 1.39082,-0.5045 2.071496,-0.6995 -1.013125,-3.1266 -3.241348,-5.6693 -6.335878,-6.8172 -0.868632,-0.3221 -1.752169,-0.4886 -2.635384,-0.5237 z m 12.041302,8.9783 -0.01567,0 c -0.512413,-0.018 -1.025137,0.01 -1.535021,0.076 -0.02639,0.01 -0.04714,0.022 -0.0744,0.025 -0.798227,0.1034 -1.586731,0.3139 -2.35148,0.6096 -2.510935,1.0387 -4.593877,2.8381 -5.934491,5.1641 -0.05101,0.09 -0.11574,0.1721 -0.191879,0.2424 l -0.14097,0.1289 -0.01567,0.016 c -0.01895,0.017 -0.03854,0.033 -0.05873,0.049 -0.02154,0.017 -0.04375,0.032 -0.06657,0.047 -0.0084,0.01 -0.01688,0.012 -0.02545,0.018 l -0.0098,0.01 c -0.02236,0.013 -0.04521,0.026 -0.06853,0.037 -0.0237,0.012 -0.04787,0.023 -0.07245,0.033 -0.0097,0 -0.01952,0.01 -0.02937,0.012 -0.01618,0.01 -0.0325,0.011 -0.04895,0.016 -0.01423,0.01 -0.0286,0.011 -0.04308,0.016 -0.0233,0.01 -0.0468,0.011 -0.07048,0.016 -6.01e-4,2e-4 -0.0014,-10e-5 -0.002,0 -0.193525,0.045 -0.398971,0.038 -0.591297,-0.037 -2.848655,-1.1156 -5.988171,-0.9728 -8.195916,0.803 -0.147184,0.1183 -0.29025,0.244 -0.428788,0.377 -0.0064,0.01 -0.01125,0.013 -0.01762,0.02 -1.595745,1.5531 -2.299042,3.5593 -2.349522,5.717 0.0037,0.1639 0.0033,0.3285 0.01762,0.4925 0.06299,0.7069 0.217102,1.4129 0.483611,2.0985 1.125945,2.8968 3.903388,4.8799 7.095557,5.043 l 14.165661,0 c 0.03116,0 0.06251,-0.01 0.09398,-0.01 5.022219,-0.1632 9.221831,-3.8827 10.008965,-8.9 0.790952,-5.042 -2.098211,-9.9178 -6.868437,-11.61 -0.876295,-0.3108 -1.767371,-0.4727 -2.658876,-0.506 z"/><path style="color:#000000;font-style:normal;font-variant:normal;font-weight:normal;font-stretch:normal;font-size:medium;line-height:normal;font-family:sans-serif;text-indent:0;text-align:start;text-decoration:none;text-decoration-line:none;text-decoration-style:solid;text-decoration-color:#000000;letter-spacing:normal;word-spacing:normal;text-transform:none;direction:ltr;block-progression:tb;writing-mode:lr-tb;baseline-shift:baseline;text-anchor:start;white-space:normal;clip-rule:nonzero;display:inline;overflow:visible;visibility:visible;opacity:1;isolation:auto;mix-blend-mode:normal;color-interpolation:sRGB;color-interpolation-filters:linearRGB;solid-color:#000000;solid-opacity:1;fill:#000000;fill-opacity:1;fill-rule:evenodd;stroke:none;stroke-width:2;stroke-linecap:round;stroke-linejoin:round;stroke-miterlimit:4;stroke-dasharray:none;stroke-dashoffset:0;stroke-opacity:1;color-rendering:auto;image-rendering:auto;shape-rendering:auto;text-rendering:auto;enable-background:accumulate" d="m 31.971441,1047.3628 a 0.99918415,0.99962829 0 0 0 -0.686871,0.3024 l -1.978656,1.9776 a 0.99918415,0.99962829 0 1 0 1.412769,1.4135 l 1.978655,-1.9777 a 0.99918415,0.99962829 0 0 0 -0.725897,-1.7158 z"/><path style="color:#000000;font-style:normal;font-variant:normal;font-weight:normal;font-stretch:normal;font-size:medium;line-height:normal;font-family:sans-serif;text-indent:0;text-align:start;text-decoration:none;text-decoration-line:none;text-decoration-style:solid;text-decoration-color:#000000;letter-spacing:normal;word-spacing:normal;text-transform:none;direction:ltr;block-progression:tb;writing-mode:lr-tb;baseline-shift:baseline;text-anchor:start;white-space:normal;clip-rule:nonzero;display:inline;overflow:visible;visibility:visible;opacity:1;isolation:auto;mix-blend-mode:normal;color-interpolation:sRGB;color-interpolation-filters:linearRGB;solid-color:#000000;solid-opacity:1;fill:#000000;fill-opacity:1;fill-rule:evenodd;stroke:none;stroke-width:1.99999988;stroke-linecap:round;stroke-linejoin:round;stroke-miterlimit:4;stroke-dasharray:none;stroke-dashoffset:0;stroke-opacity:1;color-rendering:auto;image-rendering:auto;shape-rendering:auto;text-rendering:auto;enable-background:accumulate" d="m 15.971839,1047.3627 a 0.99882547,0.99928405 0 0 0 -0.686624,0.3024 l -1.977945,1.9769 a 0.99882547,0.99928405 0 1 0 1.412261,1.4129 l 1.977945,-1.9769 a 0.99882547,0.99928405 0 0 0 -0.725637,-1.7153 z"/><path style="color:#000000;font-style:normal;font-variant:normal;font-weight:normal;font-stretch:normal;font-size:medium;line-height:normal;font-family:sans-serif;text-indent:0;text-align:start;text-decoration:none;text-decoration-line:none;text-decoration-style:solid;text-decoration-color:#000000;letter-spacing:normal;word-spacing:normal;text-transform:none;direction:ltr;block-progression:tb;writing-mode:lr-tb;baseline-shift:baseline;text-anchor:start;white-space:normal;clip-rule:nonzero;display:inline;overflow:visible;visibility:visible;opacity:1;isolation:auto;mix-blend-mode:normal;color-interpolation:sRGB;color-interpolation-filters:linearRGB;solid-color:#000000;solid-opacity:1;fill:#000000;fill-opacity:1;fill-rule:evenodd;stroke:none;stroke-width:2;stroke-linecap:round;stroke-linejoin:round;stroke-miterlimit:4;stroke-dasharray:none;stroke-dashoffset:0;stroke-opacity:1;color-rendering:auto;image-rendering:auto;shape-rendering:auto;text-rendering:auto;enable-background:accumulate" d="m 25.990687,1039.3625 a 1.0002476,0.99954746 0 0 0 -0.757924,0.3689 l -5.000738,5.985 a 1.0002476,0.99954746 0 0 0 0.931778,1.6261 l 3.340337,-0.5564 -3.271967,3.9177 a 1.0002476,0.99954746 0 1 0 1.535382,1.2806 l 5.000739,-5.985 a 1.0002476,0.99954746 0 0 0 -0.931778,-1.626 l -3.340337,0.5563 3.271967,-3.9177 a 1.0002476,0.99954746 0 0 0 -0.777459,-1.6495 z"/><path style="color:#000000;font-style:normal;font-variant:normal;font-weight:normal;font-stretch:normal;font-size:medium;line-height:normal;font-family:sans-serif;text-indent:0;text-align:start;text-decoration:none;text-decoration-line:none;text-decoration-style:solid;text-decoration-color:#000000;letter-spacing:normal;word-spacing:normal;text-transform:none;direction:ltr;block-progression:tb;writing-mode:lr-tb;baseline-shift:baseline;text-anchor:start;white-space:normal;clip-rule:nonzero;display:inline;overflow:visible;visibility:visible;opacity:1;isolation:auto;mix-blend-mode:normal;color-interpolation:sRGB;color-interpolation-filters:linearRGB;solid-color:#000000;solid-opacity:1;fill:#000000;fill-opacity:1;fill-rule:evenodd;stroke:none;stroke-width:1.99999988;stroke-linecap:round;stroke-linejoin:round;stroke-miterlimit:4;stroke-dasharray:none;stroke-dashoffset:0;stroke-opacity:1;color-rendering:auto;image-rendering:auto;shape-rendering:auto;text-rendering:auto;enable-background:accumulate" d="m 7.972291,1047.362 a 0.99896829,0.99942664 0 0 0 -0.686722,0.3025 l -1.978228,1.9772 a 0.99896829,0.99942664 0 1 0 1.412463,1.4131 l 1.978228,-1.9772 a 0.99896829,0.99942664 0 0 0 -0.725741,-1.7156 z"/><path d="m 39.971441,1047.3628 a 0.99918415,0.99962829 0 0 0 -0.686871,0.3024 l -1.978656,1.9776 a 0.99918415,0.99962829 0 1 0 1.412769,1.4135 l 1.978655,-1.9777 a 0.99918415,0.99962829 0 0 0 -0.725897,-1.7158 z" style="color:#000000;font-style:normal;font-variant:normal;font-weight:normal;font-stretch:normal;font-size:medium;line-height:normal;font-family:sans-serif;text-indent:0;text-align:start;text-decoration:none;text-decoration-line:none;text-decoration-style:solid;text-decoration-color:#000000;letter-spacing:normal;word-spacing:normal;text-transform:none;direction:ltr;block-progression:tb;writing-mode:lr-tb;baseline-shift:baseline;text-anchor:start;white-space:normal;clip-rule:nonzero;display:inline;overflow:visible;visibility:visible;opacity:1;isolation:auto;mix-blend-mode:normal;color-interpolation:sRGB;color-interpolation-filters:linearRGB;solid-color:#000000;solid-opacity:1;fill:#000000;fill-opacity:1;fill-rule:evenodd;stroke:none;stroke-width:2;stroke-linecap:round;stroke-linejoin:round;stroke-miterlimit:4;stroke-dasharray:none;stroke-dashoffset:0;stroke-opacity:1;color-rendering:auto;image-rendering:auto;shape-rendering:auto;text-rendering:auto;enable-background:accumulate"/><path style="color:#000000;font-style:normal;font-variant:normal;font-weight:normal;font-stretch:normal;font-size:medium;line-height:normal;font-family:sans-serif;text-indent:0;text-align:start;text-decoration:none;text-decoration-line:none;text-decoration-style:solid;text-decoration-color:#000000;letter-spacing:normal;word-spacing:normal;text-transform:none;direction:ltr;block-progression:tb;writing-mode:lr-tb;baseline-shift:baseline;text-anchor:start;white-space:normal;clip-rule:nonzero;display:inline;overflow:visible;visibility:visible;opacity:1;isolation:auto;mix-blend-mode:normal;color-interpolation:sRGB;color-interpolation-filters:linearRGB;solid-color:#000000;solid-opacity:1;fill:#000000;fill-opacity:1;fill-rule:evenodd;stroke:none;stroke-width:2;stroke-linecap:round;stroke-linejoin:round;stroke-miterlimit:4;stroke-dasharray:none;stroke-dashoffset:0;stroke-opacity:1;color-rendering:auto;image-rendering:auto;shape-rendering:auto;text-rendering:auto;enable-background:accumulate" d="m 41.971441,1040.3628 a 0.99918415,0.99962829 0 0 0 -0.686871,0.3024 l -1.978656,1.9776 a 0.99918415,0.99962829 0 1 0 1.412769,1.4135 l 1.978655,-1.9777 a 0.99918415,0.99962829 0 0 0 -0.725897,-1.7158 z"/><path d="m 33.971441,1040.3628 a 0.99918415,0.99962829 0 0 0 -0.686871,0.3024 l -1.978656,1.9776 a 0.99918415,0.99962829 0 1 0 1.412769,1.4135 l 1.978655,-1.9777 a 0.99918415,0.99962829 0 0 0 -0.725897,-1.7158 z" style="color:#000000;font-style:normal;font-variant:normal;font-weight:normal;font-stretch:normal;font-size:medium;line-height:normal;font-family:sans-serif;text-indent:0;text-align:start;text-decoration:none;text-decoration-line:none;text-decoration-style:solid;text-decoration-color:#000000;letter-spacing:normal;word-spacing:normal;text-transform:none;direction:ltr;block-progression:tb;writing-mode:lr-tb;baseline-shift:baseline;text-anchor:start;white-space:normal;clip-rule:nonzero;display:inline;overflow:visible;visibility:visible;opacity:1;isolation:auto;mix-blend-mode:normal;color-interpolation:sRGB;color-interpolation-filters:linearRGB;solid-color:#000000;solid-opacity:1;fill:#000000;fill-opacity:1;fill-rule:evenodd;stroke:none;stroke-width:2;stroke-linecap:round;stroke-linejoin:round;stroke-miterlimit:4;stroke-dasharray:none;stroke-dashoffset:0;stroke-opacity:1;color-rendering:auto;image-rendering:auto;shape-rendering:auto;text-rendering:auto;enable-background:accumulate"/><path style="color:#000000;font-style:normal;font-variant:normal;font-weight:normal;font-stretch:normal;font-size:medium;line-height:normal;font-family:sans-serif;text-indent:0;text-align:start;text-decoration:none;text-decoration-line:none;text-decoration-style:solid;text-decoration-color:#000000;letter-spacing:normal;word-spacing:normal;text-transform:none;direction:ltr;block-progression:tb;writing-mode:lr-tb;baseline-shift:baseline;text-anchor:start;white-space:normal;clip-rule:nonzero;display:inline;overflow:visible;visibility:visible;opacity:1;isolation:auto;mix-blend-mode:normal;color-interpolation:sRGB;color-interpolation-filters:linearRGB;solid-color:#000000;solid-opacity:1;fill:#000000;fill-opacity:1;fill-rule:evenodd;stroke:none;stroke-width:2;stroke-linecap:round;stroke-linejoin:round;stroke-miterlimit:4;stroke-dasharray:none;stroke-dashoffset:0;stroke-opacity:1;color-rendering:auto;image-rendering:auto;shape-rendering:auto;text-rendering:auto;enable-background:accumulate" d="m 17.971441,1040.3628 a 0.99918415,0.99962829 0 0 0 -0.686871,0.3024 l -1.978656,1.9776 a 0.99918415,0.99962829 0 1 0 1.412769,1.4135 l 1.978655,-1.9777 a 0.99918415,0.99962829 0 0 0 -0.725897,-1.7158 z"/><path d="m 9.971441,1040.3628 a 0.99918415,0.99962829 0 0 0 -0.686871,0.3024 l -1.978656,1.9776 a 0.99918415,0.99962829 0 1 0 1.412769,1.4135 l 1.978655,-1.9777 a 0.99918415,0.99962829 0 0 0 -0.725897,-1.7158 z" style="color:#000000;font-style:normal;font-variant:normal;font-weight:normal;font-stretch:normal;font-size:medium;line-height:normal;font-family:sans-serif;text-indent:0;text-align:start;text-decoration:none;text-decoration-line:none;text-decoration-style:solid;text-decoration-color:#000000;letter-spacing:normal;word-spacing:normal;text-transform:none;direction:ltr;block-progression:tb;writing-mode:lr-tb;baseline-shift:baseline;text-anchor:start;white-space:normal;clip-rule:nonzero;display:inline;overflow:visible;visibility:visible;opacity:1;isolation:auto;mix-blend-mode:normal;color-interpolation:sRGB;color-interpolation-filters:linearRGB;solid-color:#000000;solid-opacity:1;fill:#000000;fill-opacity:1;fill-rule:evenodd;stroke:none;stroke-width:2;stroke-linecap:round;stroke-linejoin:round;stroke-miterlimit:4;stroke-dasharray:none;stroke-dashoffset:0;stroke-opacity:1;color-rendering:auto;image-rendering:auto;shape-rendering:auto;text-rendering:auto;enable-background:accumulate"/></svg>